<svg fill="#FFFFFF" height="24" viewBox="0 0 24 24" width="24" xmlns="http://www.w3.org/2000/svg">
    <path d="M 2.51513 7.84694L -2.09144e-07 7.84694L -2.09144e-07 11.952L 2.51513 11.952L 2.51513 24L 7.34666 24L 7.34666 11.8972L 10.7184 11.8972L 11.0748 7.84694L 7.34666 7.84694C 7.34666 7.84694 7.34666 6.33238 7.34666 5.53741C 7.34666 4.58481 7.53855 4.20103 8.46374 4.20103C 9.21074 4.20103 11.0817 4.20103 11.0817 4.20103L 11.0817 1.04572e-07C 11.0817 1.04572e-07 8.32667 1.04572e-07 7.73729 1.04572e-07C 4.13935 1.04572e-07 2.52199 1.58309 2.52199 4.61222C 2.51513 7.25757 2.51513 7.84694 2.51513 7.84694Z"/>
</svg>